{
	"asset":{
		"generator":"Khronos glTF Blender I/O v4.1.63",
		"version":"2.0"
	},
	"extensionsUsed":[
		"KHR_materials_specular"
	],
	"scene":0,
	"scenes":[
		{
			"name":"Scene",
			"nodes":[
				0
			]
		}
	],
	"nodes":[
		{
			"mesh":0,
			"name":"Untitled",
			"rotation":[
				0.7071068286895752,
				0,
				0,
				0.7071068286895752
			]
		}
	],
	"materials":[
		{
			"doubleSided":true,
			"extensions":{
				"KHR_materials_specular":{
					"specularFactor":0
				}
			},
			"name":"palette.002",
			"pbrMetallicRoughness":{
				"baseColorTexture":{
					"index":0
				},
				"metallicFactor":0
			}
		}
	],
	"meshes":[
		{
			"name":"Untitled.002",
			"primitives":[
				{
					"attributes":{
						"POSITION":0,
						"NORMAL":1,
						"TEXCOORD_0":2
					},
					"indices":3,
					"material":0
				}
			]
		}
	],
	"textures":[
		{
			"sampler":0,
			"source":0
		}
	],
	"images":[
		{
			"mimeType":"image/png",
			"name":"Taiwan_green_building.vox",
			"uri":"Taiwan_green_building_vox.png"
		}
	],
	"accessors":[
		{
			"bufferView":0,
			"componentType":5126,
			"count":65101,
			"max":[
				1.899999976158142,
				2,
				0
			],
			"min":[
				-2,
				-1.899999976158142,
				-12
			],
			"type":"VEC3"
		},
		{
			"bufferView":1,
			"componentType":5126,
			"count":65101,
			"type":"VEC3"
		},
		{
			"bufferView":2,
			"componentType":5126,
			"count":65101,
			"type":"VEC2"
		},
		{
			"bufferView":3,
			"componentType":5123,
			"count":114678,
			"type":"SCALAR"
		}
	],
	"bufferViews":[
		{
			"buffer":0,
			"byteLength":781212,
			"byteOffset":0,
			"target":34962
		},
		{
			"buffer":0,
			"byteLength":781212,
			"byteOffset":781212,
			"target":34962
		},
		{
			"buffer":0,
			"byteLength":520808,
			"byteOffset":1562424,
			"target":34962
		},
		{
			"buffer":0,
			"byteLength":229356,
			"byteOffset":2083232,
			"target":34963
		}
	],
	"samplers":[
		{
			"magFilter":9729,
			"minFilter":9987
		}
	],
	"buffers":[
		{
			"byteLength":2312588,
			"uri":"my_green%20building.bin"
		}
	]
}
